<svg version="1.1" id="Capa_1" xmlns="http://www.w3.org/2000/svg" xmlns:xlink="http://www.w3.org/1999/xlink" 
	 viewBox="0 0 315.236 315.236" xml:space="preserve">
<g>
	<g>
		<rect x="44.71" y="172.83" style="fill:#010002;" width="34.363" height="34.363"/>
		<rect x="174.322" y="108.012" style="fill:#010002;" width="34.369" height="34.363"/>
		<rect x="174.322" y="172.812" style="fill:#010002;" width="34.369" height="34.363"/>
		<rect x="174.322" y="237.631" style="fill:#010002;" width="34.369" height="34.363"/>
		<rect x="109.516" y="108.018" style="fill:#010002;" width="34.363" height="34.363"/>
		<rect x="44.71" y="108.03" style="fill:#010002;" width="34.363" height="34.363"/>
		<rect x="109.516" y="237.643" style="fill:#010002;" width="34.363" height="34.363"/>
		<rect x="109.516" y="172.818" style="fill:#010002;" width="34.363" height="34.363"/>
		<rect x="44.71" y="237.654" style="fill:#010002;" width="34.363" height="34.363"/>
		<path style="fill:#010002;" d="M1.414,0v315.236h312.407V0H1.414z M91.007,283.945H32.776v-58.231h58.231V283.945z
			 M91.007,219.127H32.776v-58.231h58.231V219.127z M91.007,154.327H32.776V96.096h58.231V154.327z M155.813,283.939H97.582v-58.231
			h58.231V283.939z M155.813,219.115H97.582v-58.231h58.231V219.115z M155.813,154.315H97.582V96.085h58.231V154.315z
			 M220.619,283.928h-58.237v-58.231h58.237V283.928z M220.619,219.103h-58.237v-58.231h58.237V219.103z M220.619,154.303h-58.237
			V96.073h58.237V154.303z M285.437,283.922h-58.231V160.879h58.231V283.922z M285.437,154.297h-58.231V96.067h58.231V154.297z
			 M285.437,89.515H32.776V31.284h252.661C285.437,31.284,285.437,89.515,285.437,89.515z"/>
		<rect x="239.14" y="108" style="fill:#010002;" width="34.363" height="34.363"/>
		<rect x="44.71" y="43.218" style="fill:#010002;" width="228.794" height="34.363"/>
		<rect x="239.14" y="172.812" style="fill:#010002;" width="34.363" height="99.175"/>
	</g>
</g>
</svg>